<svg xmlns="http://www.w3.org/2000/svg" viewBox="0 0 42.89 34.29"><defs><style>.cls-1{fill:#00a388;}</style></defs><title>social-kiwi</title><g id="Layer_2" data-name="Layer 2"><g id="Artwork"><path class="cls-1" d="M17.08,6.1a17.29,17.29,0,0,1,15.28-6c4.92.57,7.64,2.57,9.08,5C43.29,8.18,43,12,42.51,14.25c-1.61,7.38-7.19,8.28-7.19,8.28l-.71,6.55,1.35.39-2.38,4.11.19-2.25-5.78,3,4.56-3.79-2.44-.13L32.88,29,33,22.67a2.7,2.7,0,0,1-1.75-1.27,8,8,0,0,1-.69-2.26,9,9,0,0,1-1.21,1.61,4.39,4.39,0,0,1-2,1l-.14,5.76,1.16.41-3.68,4.21.53-2L21,32.52,25,28.94l-3.25.19,3.85-1.76.19-5.85a6.4,6.4,0,0,1-3.61-2c-1.76-1.85-1.69-2.87-3.54-4.07s-5,.53-7.47-1-2.58-3.25-2.58-3.25A14.16,14.16,0,0,0,4.12,15C2.53,17.35,0,22.27,0,22.27s1.34-6.48,4.86-11c1.94-2.5,3.74-2.89,3.74-2.89A6.76,6.76,0,0,1,13.23,5,4.75,4.75,0,0,1,17.08,6.1Z"/></g></g></svg>