<svg xmlns="http://www.w3.org/2000/svg" viewBox="0 0 307.01 36.1"><defs><style>.cls-1,.cls-2,.cls-7{isolation:isolate;}.cls-2,.cls-7{font-size:18.28px;fill:#e8e8e8;}.cls-2{font-family:OpenSans-CondensedBold, Open Sans Condensed;font-weight:700;}.cls-3{letter-spacing:-0.02em;}.cls-4{letter-spacing:-0.03em;}.cls-5{letter-spacing:-0.02em;}.cls-6{letter-spacing:-0.01em;}.cls-7{font-family:OpenSans-CondensedLight, Open Sans;}.cls-8{fill:#ff6138;}.cls-9{fill:#79bb8d;}.cls-10{fill:#00a186;}.cls-11{fill:#ffff9b;}</style></defs><title>logo-daniel-walter-scott</title><g id="Layer_2" data-name="Layer 2"><g id="Artwork"><g class="cls-1"><text class="cls-2" transform="translate(52.81 25.41)">DANIEL <tspan class="cls-3" x="56.53" y="0">W</tspan><tspan x="70.73" y="0">A</tspan><tspan class="cls-4" x="80.49" y="0">L</tspan><tspan x="87.21" y="0">TER S</tspan><tspan class="cls-5" x="124.09" y="0">C</tspan><tspan class="cls-6" x="132.28" y="0">O</tspan><tspan x="142.92" y="0" xml:space="preserve">TT  |  </tspan></text><text class="cls-7" transform="translate(240.31 25.41)">PORTFOLIO</text></g><path class="cls-8" d="M36.1,18a18,18,0,0,1-6.2,13.6l-4.5-5.2a11.21,11.21,0,0,0,3.9-8.5,11.33,11.33,0,0,0-3.4-8.1L30.6,5A18,18,0,0,1,36.1,18Z"/><path class="cls-9" d="M30.6,5.1,25.8,10A11.4,11.4,0,0,0,18,6.9a11.18,11.18,0,0,0-9.7,5.6L2.4,9.1a18,18,0,0,1,28.2-4Z"/><path class="cls-10" d="M14.9,28.8,13,35.4h0A18,18,0,0,1,2.4,9.1l5.9,3.4a11.69,11.69,0,0,0-1.5,5.6A11.25,11.25,0,0,0,14.9,28.8Z"/><path class="cls-11" d="M29.9,31.7A17.82,17.82,0,0,1,18,36.1a20.93,20.93,0,0,1-5.1-.7l1.9-6.6a11.27,11.27,0,0,0,3.2.5,11,11,0,0,0,7.4-2.8Z"/></g></g></svg>